<mxfile host="app.diagrams.net" agent="Mozilla/5.0 (Windows NT 10.0; Win64; x64) AppleWebKit/537.36 (KHTML, like Gecko) Chrome/129.0.0.0 Safari/537.36" version="24.7.16">
  <diagram name="Сторінка-1" id="Nn58KatyO8sCAGk1wMR3">
    <mxGraphModel dx="625" dy="499" grid="1" gridSize="10" guides="1" tooltips="1" connect="1" arrows="1" fold="1" page="1" pageScale="1" pageWidth="827" pageHeight="1169" math="0" shadow="0">
      <root>
        <mxCell id="0" />
        <mxCell id="1" parent="0" />
        <mxCell id="HZoZ1kMUlnaXQ-1u3sjK-4" value="" style="ellipse;html=1;shape=startState;" vertex="1" parent="1">
          <mxGeometry x="399" y="60" width="30" height="30" as="geometry" />
        </mxCell>
        <mxCell id="HZoZ1kMUlnaXQ-1u3sjK-5" value="" style="edgeStyle=orthogonalEdgeStyle;html=1;verticalAlign=bottom;endArrow=classic;endSize=8;rounded=0;endFill=1;" edge="1" source="HZoZ1kMUlnaXQ-1u3sjK-4" parent="1">
          <mxGeometry relative="1" as="geometry">
            <mxPoint x="414" y="120" as="targetPoint" />
          </mxGeometry>
        </mxCell>
        <mxCell id="HZoZ1kMUlnaXQ-1u3sjK-9" value="" style="edgeStyle=orthogonalEdgeStyle;rounded=0;orthogonalLoop=1;jettySize=auto;html=1;" edge="1" parent="1" source="HZoZ1kMUlnaXQ-1u3sjK-7" target="HZoZ1kMUlnaXQ-1u3sjK-8">
          <mxGeometry relative="1" as="geometry" />
        </mxCell>
        <mxCell id="HZoZ1kMUlnaXQ-1u3sjK-7" value="&lt;font color=&quot;#3399ff&quot;&gt;Ввід&lt;/font&gt; a" style="html=1;dashed=0;whiteSpace=wrap;shape=mxgraph.dfd.start" vertex="1" parent="1">
          <mxGeometry x="374" y="120" width="80" height="40" as="geometry" />
        </mxCell>
        <mxCell id="HZoZ1kMUlnaXQ-1u3sjK-11" value="" style="edgeStyle=orthogonalEdgeStyle;rounded=0;orthogonalLoop=1;jettySize=auto;html=1;" edge="1" parent="1" source="HZoZ1kMUlnaXQ-1u3sjK-8" target="HZoZ1kMUlnaXQ-1u3sjK-10">
          <mxGeometry relative="1" as="geometry" />
        </mxCell>
        <mxCell id="HZoZ1kMUlnaXQ-1u3sjK-8" value="&lt;font color=&quot;#3399ff&quot;&gt;Ввід&lt;/font&gt;&amp;nbsp;&lt;b&gt;b&lt;/b&gt;" style="html=1;dashed=0;whiteSpace=wrap;shape=mxgraph.dfd.start" vertex="1" parent="1">
          <mxGeometry x="374" y="190" width="80" height="40" as="geometry" />
        </mxCell>
        <mxCell id="HZoZ1kMUlnaXQ-1u3sjK-13" value="" style="edgeStyle=orthogonalEdgeStyle;rounded=0;orthogonalLoop=1;jettySize=auto;html=1;" edge="1" parent="1" source="HZoZ1kMUlnaXQ-1u3sjK-10" target="HZoZ1kMUlnaXQ-1u3sjK-12">
          <mxGeometry relative="1" as="geometry" />
        </mxCell>
        <mxCell id="HZoZ1kMUlnaXQ-1u3sjK-10" value="&lt;font color=&quot;#3399ff&quot;&gt;Ввід&lt;/font&gt;&amp;nbsp;c" style="html=1;dashed=0;whiteSpace=wrap;shape=mxgraph.dfd.start" vertex="1" parent="1">
          <mxGeometry x="374" y="260" width="80" height="40" as="geometry" />
        </mxCell>
        <mxCell id="HZoZ1kMUlnaXQ-1u3sjK-15" value="" style="edgeStyle=orthogonalEdgeStyle;rounded=0;orthogonalLoop=1;jettySize=auto;html=1;" edge="1" parent="1" source="HZoZ1kMUlnaXQ-1u3sjK-12" target="HZoZ1kMUlnaXQ-1u3sjK-14">
          <mxGeometry relative="1" as="geometry" />
        </mxCell>
        <mxCell id="HZoZ1kMUlnaXQ-1u3sjK-12" value="&lt;font color=&quot;#3399ff&quot;&gt;Ввід&lt;/font&gt;&amp;nbsp;xp" style="html=1;dashed=0;whiteSpace=wrap;shape=mxgraph.dfd.start" vertex="1" parent="1">
          <mxGeometry x="374" y="330" width="80" height="40" as="geometry" />
        </mxCell>
        <mxCell id="HZoZ1kMUlnaXQ-1u3sjK-18" value="" style="edgeStyle=orthogonalEdgeStyle;rounded=0;orthogonalLoop=1;jettySize=auto;html=1;" edge="1" parent="1" source="HZoZ1kMUlnaXQ-1u3sjK-14" target="HZoZ1kMUlnaXQ-1u3sjK-16">
          <mxGeometry relative="1" as="geometry" />
        </mxCell>
        <mxCell id="HZoZ1kMUlnaXQ-1u3sjK-14" value="&lt;font color=&quot;#3399ff&quot;&gt;Ввід&lt;/font&gt;&amp;nbsp;xk" style="html=1;dashed=0;whiteSpace=wrap;shape=mxgraph.dfd.start" vertex="1" parent="1">
          <mxGeometry x="374" y="400" width="80" height="40" as="geometry" />
        </mxCell>
        <mxCell id="HZoZ1kMUlnaXQ-1u3sjK-21" value="" style="edgeStyle=orthogonalEdgeStyle;rounded=0;orthogonalLoop=1;jettySize=auto;html=1;" edge="1" parent="1" source="HZoZ1kMUlnaXQ-1u3sjK-16" target="HZoZ1kMUlnaXQ-1u3sjK-20">
          <mxGeometry relative="1" as="geometry" />
        </mxCell>
        <mxCell id="HZoZ1kMUlnaXQ-1u3sjK-16" value="&lt;font color=&quot;#3399ff&quot;&gt;Ввід&lt;/font&gt;&amp;nbsp;dx" style="html=1;dashed=0;whiteSpace=wrap;shape=mxgraph.dfd.start" vertex="1" parent="1">
          <mxGeometry x="374" y="470" width="80" height="40" as="geometry" />
        </mxCell>
        <mxCell id="HZoZ1kMUlnaXQ-1u3sjK-23" value="" style="edgeStyle=orthogonalEdgeStyle;rounded=0;orthogonalLoop=1;jettySize=auto;html=1;" edge="1" parent="1" source="HZoZ1kMUlnaXQ-1u3sjK-20" target="HZoZ1kMUlnaXQ-1u3sjK-22">
          <mxGeometry relative="1" as="geometry" />
        </mxCell>
        <mxCell id="HZoZ1kMUlnaXQ-1u3sjK-20" value="x = xp" style="html=1;dashed=0;whiteSpace=wrap;shape=mxgraph.dfd.start" vertex="1" parent="1">
          <mxGeometry x="374" y="540" width="80" height="40" as="geometry" />
        </mxCell>
        <mxCell id="HZoZ1kMUlnaXQ-1u3sjK-25" value="" style="edgeStyle=orthogonalEdgeStyle;rounded=0;orthogonalLoop=1;jettySize=auto;html=1;" edge="1" parent="1" source="HZoZ1kMUlnaXQ-1u3sjK-22" target="HZoZ1kMUlnaXQ-1u3sjK-24">
          <mxGeometry relative="1" as="geometry" />
        </mxCell>
        <mxCell id="HZoZ1kMUlnaXQ-1u3sjK-22" value="" style="rhombus;whiteSpace=wrap;html=1;" vertex="1" parent="1">
          <mxGeometry x="397" y="620" width="34" height="30" as="geometry" />
        </mxCell>
        <mxCell id="HZoZ1kMUlnaXQ-1u3sjK-27" style="edgeStyle=orthogonalEdgeStyle;rounded=0;orthogonalLoop=1;jettySize=auto;html=1;entryX=0;entryY=0.5;entryDx=0;entryDy=0;" edge="1" parent="1" source="HZoZ1kMUlnaXQ-1u3sjK-24" target="HZoZ1kMUlnaXQ-1u3sjK-26">
          <mxGeometry relative="1" as="geometry" />
        </mxCell>
        <mxCell id="HZoZ1kMUlnaXQ-1u3sjK-52" style="edgeStyle=orthogonalEdgeStyle;rounded=0;orthogonalLoop=1;jettySize=auto;html=1;entryX=0.5;entryY=0;entryDx=0;entryDy=0;" edge="1" parent="1" source="HZoZ1kMUlnaXQ-1u3sjK-24" target="HZoZ1kMUlnaXQ-1u3sjK-51">
          <mxGeometry relative="1" as="geometry" />
        </mxCell>
        <mxCell id="HZoZ1kMUlnaXQ-1u3sjK-24" value="" style="rhombus;whiteSpace=wrap;html=1;" vertex="1" parent="1">
          <mxGeometry x="397" y="690" width="34" height="30" as="geometry" />
        </mxCell>
        <mxCell id="HZoZ1kMUlnaXQ-1u3sjK-30" value="" style="edgeStyle=orthogonalEdgeStyle;rounded=0;orthogonalLoop=1;jettySize=auto;html=1;" edge="1" parent="1" source="HZoZ1kMUlnaXQ-1u3sjK-26" target="HZoZ1kMUlnaXQ-1u3sjK-29">
          <mxGeometry relative="1" as="geometry" />
        </mxCell>
        <mxCell id="HZoZ1kMUlnaXQ-1u3sjK-32" value="" style="edgeStyle=orthogonalEdgeStyle;rounded=0;orthogonalLoop=1;jettySize=auto;html=1;" edge="1" parent="1" source="HZoZ1kMUlnaXQ-1u3sjK-26" target="HZoZ1kMUlnaXQ-1u3sjK-31">
          <mxGeometry relative="1" as="geometry" />
        </mxCell>
        <mxCell id="HZoZ1kMUlnaXQ-1u3sjK-26" value="" style="rhombus;whiteSpace=wrap;html=1;" vertex="1" parent="1">
          <mxGeometry x="620" y="690" width="34" height="30" as="geometry" />
        </mxCell>
        <mxCell id="HZoZ1kMUlnaXQ-1u3sjK-28" value="[x &amp;lt;= xk]" style="text;html=1;align=center;verticalAlign=middle;resizable=0;points=[];autosize=1;strokeColor=none;fillColor=none;" vertex="1" parent="1">
          <mxGeometry x="421" y="678" width="70" height="30" as="geometry" />
        </mxCell>
        <mxCell id="HZoZ1kMUlnaXQ-1u3sjK-35" style="edgeStyle=orthogonalEdgeStyle;rounded=0;orthogonalLoop=1;jettySize=auto;html=1;entryX=0;entryY=0.5;entryDx=0;entryDy=0;" edge="1" parent="1" source="HZoZ1kMUlnaXQ-1u3sjK-29" target="HZoZ1kMUlnaXQ-1u3sjK-34">
          <mxGeometry relative="1" as="geometry" />
        </mxCell>
        <mxCell id="HZoZ1kMUlnaXQ-1u3sjK-38" value="" style="edgeStyle=orthogonalEdgeStyle;rounded=0;orthogonalLoop=1;jettySize=auto;html=1;" edge="1" parent="1" source="HZoZ1kMUlnaXQ-1u3sjK-29" target="HZoZ1kMUlnaXQ-1u3sjK-37">
          <mxGeometry relative="1" as="geometry" />
        </mxCell>
        <mxCell id="HZoZ1kMUlnaXQ-1u3sjK-29" value="" style="rhombus;whiteSpace=wrap;html=1;" vertex="1" parent="1">
          <mxGeometry x="620" y="770" width="34" height="30" as="geometry" />
        </mxCell>
        <mxCell id="HZoZ1kMUlnaXQ-1u3sjK-41" style="edgeStyle=orthogonalEdgeStyle;rounded=0;orthogonalLoop=1;jettySize=auto;html=1;entryX=1;entryY=0.5;entryDx=0;entryDy=0;" edge="1" parent="1" source="HZoZ1kMUlnaXQ-1u3sjK-31" target="HZoZ1kMUlnaXQ-1u3sjK-39">
          <mxGeometry relative="1" as="geometry">
            <Array as="points">
              <mxPoint x="950" y="985" />
            </Array>
          </mxGeometry>
        </mxCell>
        <mxCell id="HZoZ1kMUlnaXQ-1u3sjK-31" value="&lt;span style=&quot;font-size: 9.5pt; line-height: 106%; font-family: &amp;quot;Cascadia Mono&amp;quot;; background: white;&quot;&gt;F = a - (x / 10 + b)&lt;/span&gt;" style="whiteSpace=wrap;html=1;rounded=1;arcSize=45;" vertex="1" parent="1">
          <mxGeometry x="890" y="675" width="120" height="60" as="geometry" />
        </mxCell>
        <mxCell id="HZoZ1kMUlnaXQ-1u3sjK-33" value="&lt;span style=&quot;font-size: 9.5pt; line-height: 106%; font-family: &amp;quot;Cascadia Mono&amp;quot;; background: white;&quot;&gt;[x &amp;lt; 0 &amp;amp;&amp;amp; b != 0]&lt;/span&gt;" style="text;html=1;align=center;verticalAlign=middle;resizable=0;points=[];autosize=1;strokeColor=none;fillColor=none;" vertex="1" parent="1">
          <mxGeometry x="640" y="678" width="150" height="30" as="geometry" />
        </mxCell>
        <mxCell id="HZoZ1kMUlnaXQ-1u3sjK-40" style="edgeStyle=orthogonalEdgeStyle;rounded=0;orthogonalLoop=1;jettySize=auto;html=1;entryX=0.5;entryY=0;entryDx=0;entryDy=0;" edge="1" parent="1" source="HZoZ1kMUlnaXQ-1u3sjK-34" target="HZoZ1kMUlnaXQ-1u3sjK-39">
          <mxGeometry relative="1" as="geometry" />
        </mxCell>
        <mxCell id="HZoZ1kMUlnaXQ-1u3sjK-34" value="&lt;span style=&quot;font-size: 9.5pt; line-height: 106%; font-family: &amp;quot;Cascadia Mono&amp;quot;; background: white;&quot;&gt;F = a - (x / 10 + b)&lt;/span&gt;" style="whiteSpace=wrap;html=1;rounded=1;arcSize=45;" vertex="1" parent="1">
          <mxGeometry x="790" y="755" width="120" height="60" as="geometry" />
        </mxCell>
        <mxCell id="HZoZ1kMUlnaXQ-1u3sjK-36" value="&lt;span style=&quot;font-size: 9.5pt; line-height: 106%; font-family: &amp;quot;Cascadia Mono&amp;quot;; background: white;&quot;&gt;[&lt;span style=&quot;font-size: 9.5pt; line-height: 106%; background-image: initial; background-position: initial; background-size: initial; background-repeat: initial; background-attachment: initial; background-origin: initial; background-clip: initial;&quot;&gt;x &amp;gt; 0 &amp;amp;&amp;amp; b == 0&lt;/span&gt;]&lt;/span&gt;" style="text;html=1;align=center;verticalAlign=middle;resizable=0;points=[];autosize=1;strokeColor=none;fillColor=none;" vertex="1" parent="1">
          <mxGeometry x="640" y="755" width="150" height="30" as="geometry" />
        </mxCell>
        <mxCell id="HZoZ1kMUlnaXQ-1u3sjK-44" value="" style="edgeStyle=orthogonalEdgeStyle;rounded=0;orthogonalLoop=1;jettySize=auto;html=1;" edge="1" parent="1" source="HZoZ1kMUlnaXQ-1u3sjK-37" target="HZoZ1kMUlnaXQ-1u3sjK-43">
          <mxGeometry relative="1" as="geometry" />
        </mxCell>
        <mxCell id="HZoZ1kMUlnaXQ-1u3sjK-37" value="&lt;span style=&quot;font-size: 9.5pt; line-height: 106%; font-family: &amp;quot;Cascadia Mono&amp;quot;; background: white;&quot;&gt;F = 3 * x + (2 / c)&lt;/span&gt;" style="whiteSpace=wrap;html=1;rounded=1;arcSize=45;" vertex="1" parent="1">
          <mxGeometry x="577" y="850" width="120" height="60" as="geometry" />
        </mxCell>
        <mxCell id="HZoZ1kMUlnaXQ-1u3sjK-45" style="edgeStyle=orthogonalEdgeStyle;rounded=0;orthogonalLoop=1;jettySize=auto;html=1;entryX=1;entryY=0.5;entryDx=0;entryDy=0;" edge="1" parent="1" source="HZoZ1kMUlnaXQ-1u3sjK-39" target="HZoZ1kMUlnaXQ-1u3sjK-43">
          <mxGeometry relative="1" as="geometry" />
        </mxCell>
        <mxCell id="HZoZ1kMUlnaXQ-1u3sjK-39" value="" style="rhombus;whiteSpace=wrap;html=1;" vertex="1" parent="1">
          <mxGeometry x="833" y="970" width="34" height="30" as="geometry" />
        </mxCell>
        <mxCell id="HZoZ1kMUlnaXQ-1u3sjK-47" value="" style="edgeStyle=orthogonalEdgeStyle;rounded=0;orthogonalLoop=1;jettySize=auto;html=1;" edge="1" parent="1" source="HZoZ1kMUlnaXQ-1u3sjK-43" target="HZoZ1kMUlnaXQ-1u3sjK-46">
          <mxGeometry relative="1" as="geometry" />
        </mxCell>
        <mxCell id="HZoZ1kMUlnaXQ-1u3sjK-43" value="" style="rhombus;whiteSpace=wrap;html=1;" vertex="1" parent="1">
          <mxGeometry x="620" y="970" width="34" height="30" as="geometry" />
        </mxCell>
        <mxCell id="HZoZ1kMUlnaXQ-1u3sjK-49" value="" style="edgeStyle=orthogonalEdgeStyle;rounded=0;orthogonalLoop=1;jettySize=auto;html=1;" edge="1" parent="1" source="HZoZ1kMUlnaXQ-1u3sjK-46" target="HZoZ1kMUlnaXQ-1u3sjK-48">
          <mxGeometry relative="1" as="geometry" />
        </mxCell>
        <mxCell id="HZoZ1kMUlnaXQ-1u3sjK-46" value="&lt;font color=&quot;#3399ff&quot;&gt;Вивід &lt;/font&gt;x , F" style="whiteSpace=wrap;html=1;rounded=1;arcSize=37;" vertex="1" parent="1">
          <mxGeometry x="593.5" y="1040" width="87" height="40" as="geometry" />
        </mxCell>
        <mxCell id="HZoZ1kMUlnaXQ-1u3sjK-50" style="edgeStyle=orthogonalEdgeStyle;rounded=0;orthogonalLoop=1;jettySize=auto;html=1;entryX=1;entryY=0.5;entryDx=0;entryDy=0;" edge="1" parent="1" source="HZoZ1kMUlnaXQ-1u3sjK-48" target="HZoZ1kMUlnaXQ-1u3sjK-22">
          <mxGeometry relative="1" as="geometry">
            <Array as="points">
              <mxPoint x="1030" y="1130" />
              <mxPoint x="1030" y="635" />
            </Array>
          </mxGeometry>
        </mxCell>
        <mxCell id="HZoZ1kMUlnaXQ-1u3sjK-48" value="x += dx" style="whiteSpace=wrap;html=1;rounded=1;arcSize=37;" vertex="1" parent="1">
          <mxGeometry x="593.5" y="1110" width="87" height="40" as="geometry" />
        </mxCell>
        <mxCell id="HZoZ1kMUlnaXQ-1u3sjK-54" value="" style="edgeStyle=orthogonalEdgeStyle;rounded=0;orthogonalLoop=1;jettySize=auto;html=1;" edge="1" parent="1" source="HZoZ1kMUlnaXQ-1u3sjK-51" target="HZoZ1kMUlnaXQ-1u3sjK-53">
          <mxGeometry relative="1" as="geometry" />
        </mxCell>
        <mxCell id="HZoZ1kMUlnaXQ-1u3sjK-51" value="&lt;font face=&quot;Cascadia Mono&quot;&gt;&lt;span style=&quot;font-size: 12.6667px; background-color: rgb(255, 255, 255);&quot;&gt;&quot;__________&quot;&lt;/span&gt;&lt;/font&gt;" style="whiteSpace=wrap;html=1;rounded=1;arcSize=45;" vertex="1" parent="1">
          <mxGeometry x="353" y="1090" width="120" height="60" as="geometry" />
        </mxCell>
        <mxCell id="HZoZ1kMUlnaXQ-1u3sjK-53" value="" style="ellipse;html=1;shape=endState;" vertex="1" parent="1">
          <mxGeometry x="398" y="1190" width="30" height="30" as="geometry" />
        </mxCell>
      </root>
    </mxGraphModel>
  </diagram>
</mxfile>
